<svg width="484" height="484" viewBox="0 0 484 484" fill="none" xmlns="http://www.w3.org/2000/svg">
<path d="M175.788 361.027C175.788 362.64 173.933 363.931 171.595 363.931C168.934 364.173 167.079 362.882 167.079 361.027C167.079 359.415 168.934 358.124 171.272 358.124C173.692 357.882 175.788 359.173 175.788 361.027ZM150.708 357.398C150.143 359.011 151.756 360.866 154.176 361.35C156.272 362.156 158.692 361.35 159.176 359.737C159.659 358.124 158.127 356.269 155.708 355.544C153.611 354.979 151.273 355.786 150.708 357.398ZM186.353 356.027C184.014 356.592 182.401 358.124 182.643 359.979C182.885 361.592 184.982 362.64 187.401 362.076C189.74 361.511 191.353 359.979 191.111 358.366C190.869 356.834 188.691 355.786 186.353 356.027ZM239.416 47C127.563 47 42 131.918 42 243.771C42 333.205 98.2895 409.736 178.691 436.671C189.014 438.526 192.643 432.155 192.643 426.913C192.643 421.914 192.401 394.333 192.401 377.398C192.401 377.398 135.95 389.495 124.096 353.366C124.096 353.366 114.902 329.899 101.676 323.851C101.676 323.851 83.209 311.189 102.967 311.431C102.967 311.431 123.047 313.044 134.095 332.238C151.756 363.366 181.353 354.415 192.885 349.092C194.74 336.189 199.981 327.238 205.788 321.915C160.708 316.915 115.225 310.383 115.225 232.804C115.225 210.627 121.354 199.498 134.257 185.304C132.16 180.062 125.305 158.45 136.353 130.547C153.208 125.305 191.998 152.321 191.998 152.321C208.126 147.805 225.465 145.466 242.642 145.466C259.819 145.466 277.158 147.805 293.286 152.321C293.286 152.321 332.076 125.225 348.931 130.547C359.979 158.531 353.124 180.062 351.027 185.304C363.931 199.578 371.834 210.707 371.834 232.804C371.834 310.625 324.334 316.835 279.254 321.915C286.674 328.286 292.964 340.383 292.964 359.334C292.964 386.511 292.722 420.139 292.722 426.752C292.722 431.994 296.432 438.365 306.673 436.51C387.317 409.736 441.994 333.205 441.994 243.771C441.994 131.918 351.269 47 239.416 47ZM120.386 325.141C119.338 325.947 119.579 327.802 120.95 329.334C122.241 330.625 124.096 331.189 125.144 330.141C126.192 329.334 125.95 327.48 124.579 325.947C123.289 324.657 121.434 324.092 120.386 325.141ZM111.676 318.609C111.112 319.657 111.918 320.947 113.531 321.754C114.821 322.56 116.434 322.318 116.999 321.189C117.563 320.141 116.757 318.851 115.144 318.044C113.531 317.56 112.241 317.802 111.676 318.609ZM137.805 347.318C136.515 348.366 136.999 350.786 138.853 352.318C140.708 354.173 143.047 354.415 144.095 353.124C145.144 352.076 144.66 349.657 143.047 348.124C141.273 346.27 138.853 346.028 137.805 347.318ZM128.612 335.463C127.321 336.27 127.321 338.366 128.612 340.221C129.902 342.076 132.079 342.883 133.128 342.076C134.418 341.028 134.418 338.931 133.128 337.076C131.999 335.221 129.902 334.415 128.612 335.463Z" fill="white"/>
</svg>
