<svg width="484" height="484" viewBox="0 0 484 484" fill="none" xmlns="http://www.w3.org/2000/svg">
<path d="M134.299 405H53.4421V144.617H134.299V405ZM93.8272 109.098C67.9717 109.098 47 87.6826 47 61.8272C47 49.4078 51.9336 37.4972 60.7154 28.7154C69.4972 19.9336 81.4078 15 93.8272 15C106.246 15 118.157 19.9336 126.939 28.7154C135.721 37.4972 140.654 49.4078 140.654 61.8272C140.654 87.6826 119.674 109.098 93.8272 109.098ZM436.922 405H356.239V278.247C356.239 248.039 355.629 209.299 314.199 209.299C272.16 209.299 265.718 242.119 265.718 276.071V405H184.948V144.617H262.497V180.136H263.629C274.424 159.678 300.793 138.088 340.133 138.088C421.965 138.088 437.009 191.975 437.009 261.968V405H436.922Z" fill="white"/>
</svg>
