<svg width="484" height="484" viewBox="0 0 484 484" fill="none" xmlns="http://www.w3.org/2000/svg">
<path d="M57.5 128.3C58.1 122.4 55.8 116.5 51.4 112.5L6.29995 58.1V50H146.5L254.9 287.7L350.2 50H483.9V58.1L445.3 95.1C442 97.6 440.3 101.8 441 105.9V377.9C440.3 382 442 386.2 445.3 388.7L483 425.7V433.8H293.3V425.7L332.4 387.8C336.2 384 336.2 382.8 336.2 377V157.2L227.5 433.1H212.8L86.4 157.2V342.1C85.3 349.9 87.9 357.7 93.4 363.3L144.2 424.9V433H0.199951V425L51 363.3C56.4 357.7 58.9 349.8 57.5 342.1V128.3Z" fill="white"/>
</svg>
