<svg data-name="Layer 1" xmlns="http://www.w3.org/2000/svg" viewBox="0 0 1057 406"><path d="M121.84 122.11h118.41v31.33h-41.47v129.93h-35.47V153.44h-41.47zM293.7 225.78v57.59h-35.48V122.11h61.05c26.72 0 54.14 15.43 54.14 51.83 0 24.19-12 38.93-27.88 46.31l35.25 63.12h-39.63l-29-57.59zm21.66-72.34H293.7v41h21.66c12.9 0 22.58-5.76 22.58-20.5s-9.69-20.5-22.59-20.5zM514.7 184.08v37.32c0 37.78-24 64.74-61.05 64.74s-61-27-61-64.74v-37.32c0-37.78 24-64.74 61-64.74s61.05 26.96 61.05 64.74zm-35.48 34.1V187.3c0-24.42-9.45-36.63-25.57-36.63s-25.57 12.21-25.57 36.63v30.87c0 24.42 9.45 36.63 25.57 36.63s25.57-12.21 25.57-36.63zM574.82 207.35c0 32.48 5.07 47.69 24.19 47.69s24.19-15.21 24.19-47.69v-85.24h35.48v101.36c0 38-22.58 62.66-59.67 62.66s-59.67-24.65-59.67-62.66V122.11h35.48zM674.11 122.11h37.32l31.79 109.2L775 122.11h37.32l-50.67 161.26h-36.86zM839.06 253.42l-8.75 29.95h-37.09l52.29-161.26h36.86l52.3 161.26h-37.09l-8.75-29.95zm41.47-29l-16.59-56.67-16.59 56.67z"/></svg>