<svg xmlns="http://www.w3.org/2000/svg" viewBox="0 0 310.2 310.2">
  <defs>
    <style>
      .cls-1 {
        fill: #fff;
      }

      .cls-2 {
        fill: none;
      }
    </style>
  </defs>
  <g id="monogram" transform="translate(-155 -155.5)">
    <g id="Layer_1">
      <g id="Group_1" data-name="Group 1">
        <path id="Path_1" data-name="Path 1" class="cls-1" d="M381.5,155.7c-35.2,0-58.9,27.5-58.9,62.4l.3,247.6h34.4l.3-241c-.3-34.5,16.5-38,26-38l81.6.4V155.7Z"/>
        <path id="Path_2" data-name="Path 2" class="cls-1" d="M238.4,155.7c35.2,0,58.9,27.5,58.9,62.4L297,465.7H262.6l-.3-241c.3-34.5-16.5-38-26-38l-81.3.4V155.7Z"/>
      </g>
    </g>
    <g id="Layer_1_copy">
      <line id="Line_1" data-name="Line 1" class="cls-2" y2="310" transform="translate(292.7 155.7)"/>
      <line id="Line_2" data-name="Line 2" class="cls-2" y2="310" transform="translate(327.2 155.7)"/>
      <line id="Line_3" data-name="Line 3" class="cls-2" y2="310" transform="translate(322.9 155.7)"/>
      <line id="Line_4" data-name="Line 4" class="cls-2" y2="310" transform="translate(361.7 155.7)"/>
      <line id="Line_5" data-name="Line 5" class="cls-2" y2="310" transform="translate(309.9 155.7)"/>
      <line id="Line_6" data-name="Line 6" class="cls-2" y2="310" transform="translate(318.5 155.7)"/>
      <line id="Line_7" data-name="Line 7" class="cls-2" y2="310" transform="translate(318.5 155.7)"/>
      <line id="Line_8" data-name="Line 8" class="cls-2" y2="310" transform="translate(314.2 155.7)"/>
      <line id="Line_9" data-name="Line 9" class="cls-2" y2="310" transform="translate(309.9 155.7)"/>
      <line id="Line_10" data-name="Line 10" class="cls-2" y2="310" transform="translate(305.6 155.7)"/>
      <line id="Line_11" data-name="Line 11" class="cls-2" y2="310" transform="translate(301.3 155.7)"/>
      <line id="Line_12" data-name="Line 12" class="cls-2" y2="310" transform="translate(301.3 155.7)"/>
      <line id="Line_13" data-name="Line 13" class="cls-2" y2="310" transform="translate(297 155.7)"/>
      <line id="Line_14" data-name="Line 14" class="cls-2" y2="310" transform="translate(309.9 155.7)"/>
      <line id="Line_15" data-name="Line 15" class="cls-2" y2="310" transform="translate(396.2 155.7)"/>
      <line id="Line_16" data-name="Line 16" class="cls-2" y2="310" transform="translate(430.7 155.7)"/>
      <line id="Line_17" data-name="Line 17" class="cls-2" y2="310" transform="translate(465 155.7)"/>
      <line id="Line_18" data-name="Line 18" class="cls-2" y2="310" transform="translate(189.1 155.7)"/>
      <line id="Line_19" data-name="Line 19" class="cls-2" y2="310" transform="translate(223.6 155.7)"/>
      <line id="Line_20" data-name="Line 20" class="cls-2" y2="310" transform="translate(155 155.7)"/>
      <line id="Line_21" data-name="Line 21" class="cls-2" x1="310.2" transform="translate(155 186.7)"/>
      <line id="Line_22" data-name="Line 22" class="cls-2" x1="310.2" transform="translate(155 465)"/>
      <line id="Line_23" data-name="Line 23" class="cls-2" y2="310" transform="translate(258.2 155.7)"/>
      <line id="Line_24" data-name="Line 24" class="cls-2" y2="310" transform="translate(292.7 155.7)"/>
      <path id="Path_3" data-name="Path 3" class="cls-2" d="M237,155.6c36.6,0,60.2,26.6,60.2,63.9v36.8c0,37.3-23.6,63.9-60.2,63.9M176.7,219.4c0-37.3,23.6-63.9,60.2-63.9M176.7,256.2V219.4M237,320.1c-36.6,0-60.2-26.6-60.2-63.9m60.2,33c15.9,0,25.2-12,25.2-36.1V222.6c0-24.1-9.3-36.1-25.2-36.1M211.7,253c0,24.1,9.3,36.1,25.2,36.1m-25.2-66.5V253M237,186.5c-15.9,0-25.2,12-25.2,36.1"/>
      <path id="Path_4" data-name="Path 4" class="cls-2" d="M383.1,155.6c36.6,0,60.2,26.6,60.2,63.9v36.8c0,37.3-23.6,63.9-60.2,63.9M322.9,219.4c0-37.3,23.6-63.9,60.2-63.9M322.9,256.2V219.4m60.2,100.7c-36.6,0-60.2-26.6-60.2-63.9m60.2,33c15.9,0,25.2-12,25.2-36.1V222.6c0-24.1-9.3-36.1-25.2-36.1M357.9,253c0,24.1,9.3,36.1,25.2,36.1m-25.2-66.5V253m25.2-66.5c-15.9,0-25.2,12-25.2,36.1"/>
    </g>
  </g>
</svg>
