<?xml version="1.0" encoding="UTF-8"?>
<svg width="73px" height="85px" viewBox="0 0 73 85" version="1.1" xmlns="http://www.w3.org/2000/svg" xmlns:xlink="http://www.w3.org/1999/xlink">
    <!-- Generator: Sketch 52.2 (67145) - http://www.bohemiancoding.com/sketch -->
    <title>monogram</title>
    <desc>Created with Sketch.</desc>
    <g id="Page-1" stroke="none" stroke-width="1" fill="none" fill-rule="evenodd" stroke-linecap="round">
        <g id="monogram" transform="translate(3.000000, 2.000000)" fill-rule="nonzero" stroke="#FF0000" stroke-width="5">
            <path d="M9.421875,2.29296875 C11.2148438,11.9882812 13.9241642,21.5582462 14.8007812,31.3789062 C15.9011432,43.7061601 16.3454749,56.1692025 15.3320312,68.5039062 C13.6644521,88.800145 -5.64156306,81.898955 2.25390625,54.7617188 C7.33679535,37.2915017 25.3669663,17.8457103 41,9.203125" id="Path"></path>
            <path d="M41.2589232,9.83971192 C42.6339627,7.97709466 44.3999576,6.34748779 45.3840416,4.25186014 C47.9583597,-1.23020435 42.5829698,0.483746026 41.865063,4.39287184 C39.4709072,17.4294616 46.1541469,21.02354 53.5837669,11.2477243" id="Path-7"></path>
            <path d="M52.6244656,18.7075658 C54.346094,-2.90768119 61.8313373,2.8851753 66.8076129,19.0014334" id="Path-5" transform="translate(59.716039, 11.807829) rotate(-1.000000) translate(-59.716039, -11.807829) "></path>
        </g>
    </g>
</svg>