<svg width="484" height="484" viewBox="0 0 484 484" fill="none" xmlns="http://www.w3.org/2000/svg">
<path d="M434.25 142.967C434.557 147.266 434.557 151.566 434.557 155.866C434.557 287 334.748 438.097 152.325 438.097C96.1245 438.097 43.9166 421.82 0 393.567C7.98509 394.488 15.662 394.795 23.9543 394.795C70.3268 394.795 113.015 379.133 147.104 352.415C103.495 351.493 66.9492 322.932 54.3576 283.622C60.5002 284.543 66.642 285.158 73.0918 285.158C81.9977 285.158 90.9044 283.929 99.1958 281.78C53.7441 272.566 19.6541 232.642 19.6541 184.427V183.199C32.8592 190.569 48.2159 195.176 64.4914 195.789C37.7729 177.977 20.2685 147.573 20.2685 113.177C20.2685 94.7511 25.1813 77.8601 33.7809 63.1189C82.6112 123.312 156.01 162.621 238.314 166.921C236.779 159.551 235.857 151.874 235.857 144.196C235.857 89.5301 280.081 45 335.053 45C363.614 45 389.411 56.9772 407.531 76.3249C429.949 72.0256 451.446 63.7333 470.488 52.3706C463.116 75.4042 447.454 94.752 426.878 107.035C446.841 104.887 466.188 99.3576 484 91.6807C470.49 111.335 453.598 128.839 434.25 142.967V142.967Z" fill="white"/>
</svg>
